HIERARCHY
ROOT Hips
{
	OFFSET 0.000000 0.000000 0.000000
	CHANNELS 6 Xposition Yposition Zposition Xrotation Yrotation Zrotation
	JOINT LeftUpLeg_virtual
	{
		OFFSET 0.000000 0.000000 0.000000
		CHANNELS 3 Xrotation Yrotation Zrotation
		JOINT LeftUpLeg
		{
			OFFSET 13.026900 -6.336304 -1.092800
			CHANNELS 3 Xrotation Yrotation Zrotation
			JOINT LeftLeg
			{
				OFFSET 0.524474 -46.096886 9.782700
				CHANNELS 3 Xrotation Yrotation Zrotation
				JOINT LeftFoot
				{
					OFFSET -0.524474 -53.427422 -12.948200
					CHANNELS 3 Xrotation Yrotation Zrotation
					JOINT LeftToeBase
					{
						OFFSET 0.192200 -14.009700 16.364100
						CHANNELS 3 Xrotation Yrotation Zrotation
						JOINT LeftToe_End
						{
							OFFSET -1.784700 -0.561700 9.474800
							CHANNELS 3 Xrotation Yrotation Zrotation
							End Site
							{
								OFFSET 0 0 0
							}
						}
					}
				}
			}
		}
	}
	JOINT RightUpLeg_virtual
	{
		OFFSET 0.000000 0.000000 0.000000
		CHANNELS 3 Xrotation Yrotation Zrotation
		JOINT RightUpLeg
		{
			OFFSET -12.883000 -6.336304 -1.092800
			CHANNELS 3 Xrotation Yrotation Zrotation
			JOINT RightLeg
			{
				OFFSET -0.524587 -46.096825 9.782800
				CHANNELS 3 Xrotation Yrotation Zrotation
				JOINT RightFoot
				{
					OFFSET 0.524587 -53.427383 -12.948300
					CHANNELS 3 Xrotation Yrotation Zrotation
					JOINT RightToeBase
					{
						OFFSET -0.192200 -14.009700 16.364100
						CHANNELS 3 Xrotation Yrotation Zrotation
						JOINT RightToe_End
						{
							OFFSET 1.784700 -0.561700 9.474800
							CHANNELS 3 Xrotation Yrotation Zrotation
							End Site
							{
								OFFSET 0 0 0
							}
						}
					}
				}
			}
		}
	}
	JOINT Spine_virtual
	{
		OFFSET 0.000000 0.000000 0.000000
		CHANNELS 3 Xrotation Yrotation Zrotation
		JOINT Spine
		{
			OFFSET 0.072000 7.257294 -0.789700
			CHANNELS 3 Xrotation Yrotation Zrotation
			JOINT Spine1
			{
				OFFSET 0.000000 12.508769 -0.658067
				CHANNELS 3 Xrotation Yrotation Zrotation
				JOINT Spine1_split
				{
					OFFSET 0.000000 12.508769 -0.658067
					CHANNELS 3 Xrotation Yrotation Zrotation
					JOINT Spine2
					{
						OFFSET 0.000000 12.508769 -0.658067
						CHANNELS 3 Xrotation Yrotation Zrotation
						JOINT Neck_virtual
						{
							OFFSET 0.000000 0.000000 0.000000
							CHANNELS 3 Xrotation Yrotation Zrotation
							JOINT Neck
							{
								OFFSET 0.000000 14.033295 7.520400
								CHANNELS 3 Xrotation Yrotation Zrotation
								JOINT Head
								{
									OFFSET 0.000000 8.198502 5.703100
									CHANNELS 3 Xrotation Yrotation Zrotation
									JOINT HeadTop_End
									{
										OFFSET 0.000000 17.760803 13.332701
										CHANNELS 3 Xrotation Yrotation Zrotation
										End Site
										{
											OFFSET 0 0 0
										}
									}
								}
							}
						}
						JOINT LeftShoulder_virtual
						{
							OFFSET 0.000000 0.000000 0.000000
							CHANNELS 3 Xrotation Yrotation Zrotation
							JOINT LeftShoulder
							{
								OFFSET 6.292450 5.785301 -0.669000
								CHANNELS 3 Xrotation Yrotation Zrotation
								JOINT LeftShoulder_split
								{
									OFFSET 6.292450 5.785301 -0.669000
									CHANNELS 3 Xrotation Yrotation Zrotation
									JOINT LeftArm
									{
										OFFSET 13.907140 -6.093903 1.965100
										CHANNELS 3 Xrotation Yrotation Zrotation
										JOINT LeftForeArm
										{
											OFFSET 34.140198 0.000000 0.000000
											CHANNELS 3 Xrotation Yrotation Zrotation
											JOINT LeftHand
											{
												OFFSET 40.960209 0.000000 0.000000
												CHANNELS 3 Xrotation Yrotation Zrotation
												End Site
												{
													OFFSET 0 0 0
												}
											}
										}
									}
								}
							}
						}
						JOINT RightShoulder_virtual
						{
							OFFSET 0.000000 0.000000 0.000000
							CHANNELS 3 Xrotation Yrotation Zrotation
							JOINT RightShoulder
							{
								OFFSET -6.292450 5.785301 -0.669000
								CHANNELS 3 Xrotation Yrotation Zrotation
								JOINT RightShoulder_split
								{
									OFFSET -6.292450 5.785301 -0.669000
									CHANNELS 3 Xrotation Yrotation Zrotation
									JOINT RightArm
									{
										OFFSET -13.907140 -6.093903 1.965100
										CHANNELS 3 Xrotation Yrotation Zrotation
										JOINT RightForeArm
										{
											OFFSET -34.140198 0.000000 0.000000
											CHANNELS 3 Xrotation Yrotation Zrotation
											JOINT RightHand
											{
												OFFSET -40.960209 0.000000 0.000000
												CHANNELS 3 Xrotation Yrotation Zrotation
												End Site
												{
													OFFSET 0 0 0
												}
											}
										}
									}
								}
							}
						}
					}
				}
			}
		}
	}
}
MOTION
Frames: 6
Frame Time: 0.03333333
-8.537395 89.626785 17.196251 0.000000 0.000000 0.000000 15.269165 45.901726 -7.232514 -71.274615 -7.969882 -34.018133 66.473327 -46.774952 5.745787 -0.037815 -0.746937 3.418771 -0.273668 1.011303 0.843954 0.000000 0.000000 0.000000 15.269165 45.901726 -7.232514 18.300182 -50.052436 8.508084 40.053052 15.258467 -8.309191 -17.009285 1.738958 -10.062557 -40.913718 -10.016737 8.133265 0.000000 0.000000 0.000000 15.269165 45.901726 -7.232514 8.040675 9.501118 0.214195 2.263263 15.868865 -0.306817 0.000000 0.000000 0.000000 0.000000 0.000000 0.000000 2.285590 15.868940 -0.306332 24.504731 -34.693748 6.642017 -25.197196 -35.692287 -2.805852 0.000000 0.000000 0.000000 2.285590 15.868940 -0.306332 3.220476 -3.244154 -3.620719 0.000000 0.000000 0.000000 -41.393135 7.039826 -30.339690 51.159913 -0.090154 18.384161 0.000000 0.000000 0.000000 2.285590 15.868940 -0.306332 -3.204334 8.375050 -18.677601 0.000000 0.000000 0.000000 -16.833425 -10.274746 1.972676 -36.383321 11.682216 5.462644 0.000000 0.000000 0.000000 
-8.009795 89.987610 17.214172 0.000000 0.000000 0.000000 14.623715 43.278964 -6.735834 -70.768519 -8.149411 -32.539697 66.217400 -45.545658 5.528852 -0.659518 -0.819823 3.430203 -0.256867 1.016453 0.842008 0.000000 0.000000 0.000000 14.623715 43.278964 -6.735834 16.945093 -47.695819 6.816574 40.093268 16.482213 -8.240131 -16.452654 0.952013 -10.496994 -41.179111 -9.917056 7.983434 0.000000 0.000000 0.000000 14.623715 43.278964 -6.735834 8.123299 9.407284 0.227301 2.453882 15.715410 -0.410860 0.000000 0.000000 0.000000 0.000000 0.000000 0.000000 2.476211 15.715471 -0.410373 24.483103 -34.297815 7.138976 -25.083014 -35.421959 -2.270462 0.000000 0.000000 0.000000 2.476211 15.715471 -0.410373 3.030141 -2.053842 -3.444216 0.000000 0.000000 0.000000 -34.893633 7.814693 -28.841413 51.215245 1.798530 17.534537 0.000000 0.000000 0.000000 2.476211 15.715471 -0.410373 -3.234083 9.381075 -18.988030 0.000000 0.000000 0.000000 -20.179970 -10.125707 2.111669 -35.764793 13.521269 7.848388 0.000000 0.000000 0.000000 
-7.338964 90.358315 17.247509 0.000000 0.000000 0.000000 13.531806 39.945002 -5.933480 -69.909855 -8.200111 -30.617061 66.030847 -43.964944 5.239831 -1.337496 -0.900501 3.240150 -0.238824 1.022710 0.842161 0.000000 0.000000 0.000000 13.531806 39.945002 -5.933480 15.572340 -44.828092 4.443610 39.921626 15.976116 -8.179500 -15.938612 1.943431 -9.848370 -41.355399 -9.724736 7.813923 0.000000 0.000000 0.000000 13.531806 39.945002 -5.933480 8.173500 9.288671 0.199654 2.590920 15.519604 -0.627979 0.000000 0.000000 0.000000 0.000000 0.000000 0.000000 2.613252 15.519675 -0.627483 23.964943 -33.896491 8.093916 -24.622552 -35.034233 -1.643725 0.000000 0.000000 0.000000 2.613252 15.519675 -0.627483 2.760274 -0.547904 -3.344332 0.000000 0.000000 0.000000 -27.854188 9.898208 -27.279945 51.514376 3.115310 17.933611 0.000000 0.000000 0.000000 2.613252 15.519675 -0.627483 -3.150919 9.830081 -18.703809 0.000000 0.000000 0.000000 -24.875211 -7.756474 2.628347 -35.412656 14.042540 10.178193 0.000000 0.000000 0.000000 
-6.586026 90.741409 17.212177 0.000000 0.000000 0.000000 12.377797 36.227515 -5.132917 -68.905038 -8.301903 -28.588626 65.766307 -42.020772 4.898662 -2.095575 -0.991836 3.091453 -0.219578 1.029525 0.843385 0.000000 0.000000 0.000000 12.377797 36.227515 -5.132917 14.170819 -41.884605 2.012110 40.089631 16.393017 -8.197154 -15.474424 2.089520 -9.341355 -41.385448 -9.476379 7.664656 0.000000 0.000000 0.000000 12.377797 36.227515 -5.132917 8.303100 8.984413 0.231199 2.876766 14.970311 -0.744338 0.000000 0.000000 0.000000 0.000000 0.000000 0.000000 2.899134 14.970431 -0.743858 20.706842 -33.508604 6.187281 -24.105196 -34.850057 -0.520841 0.000000 0.000000 0.000000 2.899134 14.970431 -0.743858 2.424713 0.585052 -3.033974 0.000000 0.000000 0.000000 -20.214601 14.627110 -26.367003 51.808020 4.381886 20.064495 0.000000 0.000000 0.000000 2.899134 14.970431 -0.743858 -3.702873 9.073987 -19.067880 0.000000 0.000000 0.000000 -31.284681 -1.979425 6.010699 -29.451540 13.480439 9.734763 0.000000 0.000000 0.000000 
-5.793008 91.252823 17.077820 0.000000 0.000000 0.000000 11.544417 31.793725 -4.444186 -67.850184 -8.344134 -26.107744 65.027123 -39.810441 4.252114 -2.791437 -1.124802 3.425757 -0.199283 1.037093 0.844611 0.000000 0.000000 0.000000 11.544417 31.793725 -4.444186 12.061209 -38.531027 -0.853168 40.495618 16.851581 -8.229359 -14.962197 2.211011 -8.661425 -41.217542 -9.209305 7.572019 0.000000 0.000000 0.000000 11.544417 31.793725 -4.444186 8.409603 8.554223 0.342155 3.090650 14.215108 -0.648846 0.000000 0.000000 0.000000 0.000000 0.000000 0.000000 3.113027 14.215184 -0.648338 15.552667 -32.502377 1.558974 -23.646376 -34.837240 1.494009 0.000000 0.000000 0.000000 3.113027 14.215184 -0.648338 2.032842 2.042575 -2.769258 0.000000 0.000000 0.000000 -12.439101 19.807661 -26.900321 52.208733 5.729167 21.575622 0.000000 0.000000 0.000000 3.113027 14.215184 -0.648338 -4.280436 7.096579 -20.193125 0.000000 0.000000 0.000000 -38.687947 6.014430 11.826093 -26.099433 12.379073 9.536511 0.000000 0.000000 0.000000 
-5.009247 91.866669 16.751476 0.000000 0.000000 0.000000 10.766767 26.492398 -3.626057 -66.558069 -8.130474 -23.020032 63.863744 -37.268955 3.355090 -3.421686 -1.300445 4.039465 -0.177914 1.044265 0.846859 0.000000 0.000000 0.000000 10.766767 26.492398 -3.626057 9.229560 -34.781693 -4.274770 41.406260 17.435941 -8.350630 -14.434792 2.409306 -7.883883 -40.804342 -8.962176 7.569556 0.000000 0.000000 0.000000 10.766767 26.492398 -3.626057 8.377977 8.228943 0.433223 3.032080 13.705764 -0.588834 0.000000 0.000000 0.000000 0.000000 0.000000 0.000000 3.054454 13.705874 -0.588341 12.355408 -30.562470 -1.007596 -23.343797 -33.845032 3.089258 0.000000 0.000000 0.000000 3.054454 13.705874 -0.588341 1.581666 3.281543 -2.409854 0.000000 0.000000 0.000000 -4.972774 24.901241 -29.550499 52.600875 7.124047 23.806539 0.000000 0.000000 0.000000 3.054454 13.705874 -0.588341 -4.462583 5.431264 -19.268309 0.000000 0.000000 0.000000 -45.148493 13.651419 18.801854 -21.844893 12.742659 8.957187 0.000000 0.000000 0.000000 
